<svg width="167" height="292" viewBox="0 0 167 292" fill="none" xmlns="http://www.w3.org/2000/svg">
<path d="M142.437 291.831H24.5629C18.0477 291.794 11.8108 289.182 7.21029 284.564C2.60978 279.946 0.0182498 273.696 0 267.175V24.6558C0.0182498 18.1344 2.60978 11.8842 7.21029 7.26629C11.8108 2.64837 18.0477 0.0367153 24.5629 0H142.437C148.952 0.0367153 155.189 2.64837 159.79 7.26629C164.39 11.8842 166.982 18.1344 167 24.6558V267.175C166.982 273.696 164.39 279.946 159.79 284.564C155.189 289.182 148.952 291.794 142.437 291.831ZM24.5629 10.4474C20.8131 10.4749 17.2257 11.9829 14.5806 14.6435C11.9355 17.3042 10.4466 20.9024 10.4375 24.6558V267.175C10.4467 270.946 11.95 274.56 14.6176 277.224C17.2852 279.887 20.8993 281.383 24.6673 281.383H142.437C146.187 281.356 149.774 279.848 152.419 277.187C155.064 274.526 156.553 270.928 156.562 267.175V24.6558C156.553 20.8843 155.05 17.2704 152.382 14.6068C149.715 11.9432 146.101 10.4474 142.333 10.4474H24.5629Z" fill="#7ACDCD"/>
<path d="M83.4998 275.08C78.6211 275.08 73.8519 273.631 69.7954 270.918C65.7389 268.205 62.5772 264.349 60.7102 259.838C58.8432 255.326 58.3547 250.362 59.3065 245.572C60.2583 240.782 62.6076 236.383 66.0574 232.93C69.5072 229.477 73.9025 227.125 78.6875 226.173C83.4724 225.22 88.4322 225.709 92.9396 227.578C97.4469 229.446 101.299 232.611 104.01 236.672C106.72 240.732 108.167 245.506 108.167 250.389C108.158 256.934 105.556 263.209 100.932 267.838C96.308 272.466 90.0392 275.07 83.4998 275.08ZM83.4998 236.146C80.6854 236.146 77.9342 236.981 75.5942 238.546C73.2541 240.111 71.4302 242.336 70.3532 244.938C69.2762 247.541 68.9944 250.405 69.5434 253.168C70.0925 255.931 71.4478 258.468 73.4378 260.46C75.4279 262.452 77.9634 263.809 80.7237 264.359C83.484 264.908 86.3452 264.626 88.9453 263.548C91.5455 262.47 93.7679 260.644 95.3314 258.302C96.895 255.96 97.7296 253.206 97.7296 250.389C97.7204 246.614 96.2183 242.997 93.5516 240.328C90.885 237.658 87.271 236.155 83.4998 236.146Z" fill="#7ACDCD"/>
</svg>
