<svg width="225" height="320" viewBox="0 0 225 320" fill="none" xmlns="http://www.w3.org/2000/svg">
<path d="M181.371 248.63V288C181.372 290.02 180.23 291.867 178.423 292.771L125.078 319.438C123.576 320.188 121.809 320.188 120.307 319.438L13.6176 266.104C11.8102 265.201 10.6686 263.354 10.669 261.333V200.63L2.94864 196.771C1.14122 195.867 -0.000320435 194.02 0.00012207 192V42.6667C-0.000320435 40.6464 1.14122 38.7993 2.94864 37.8958L77.631 0.5625C79.1331 -0.1875 80.9006 -0.1875 82.4028 0.5625L114.409 16.5625C116.217 17.4659 117.358 19.313 117.358 21.3333V124.703L212.43 172.229C215.683 173.861 218.454 176.311 220.473 179.339C220.732 179.563 220.944 179.835 221.099 180.14C221.135 180.247 221.165 180.355 221.187 180.466C223.059 183.675 224.046 187.324 224.047 191.039C224.121 213.281 211.541 233.631 191.611 243.513L181.371 248.63ZM170.703 253.408C156.184 258.794 140.371 259.643 125.36 255.84V307.37L170.703 284.703V253.408ZM120.025 307.37V254.266C116.465 253.136 112.993 251.745 109.638 250.104L21.3379 205.964V258.036L120.025 307.37ZM80.0169 11.2968L14.2818 44.1575L37.3413 55.6849L103.076 22.8242L80.0169 11.2968ZM106.689 26.9818L40.0085 60.3151V161.018L106.689 127.685V26.9818ZM109.638 132.771C109.464 132.665 109.296 132.55 109.136 132.425L43.306 165.333L130.91 209.125C139.174 213.234 148.887 213.234 157.15 209.125L209.434 182.99C208.886 182.523 208.291 182.114 207.658 181.771L109.638 132.771ZM213.378 191.023C213.354 189.766 213.099 188.523 212.625 187.358L159.536 213.896C149.769 218.75 138.292 218.75 128.524 213.896L36.1483 167.719C36.1021 167.696 36.0757 167.653 36.0314 167.628C36.0031 167.611 35.968 167.619 35.94 167.602C35.8674 167.557 35.8361 167.474 35.7687 167.423C35.5252 167.244 35.3147 167.024 35.1469 166.772C35.0783 166.67 35.0175 166.562 34.9648 166.45C34.8308 166.162 34.7502 165.853 34.7271 165.537C34.7213 165.465 34.6741 165.406 34.6741 165.333V60.3151L10.669 48.3151V188.703L18.3894 192.562L114.41 240.562C133.067 249.839 154.994 249.839 173.651 240.562L186.839 233.971C203.151 225.884 213.444 209.227 213.378 191.023Z" fill="#7ACDCD"/>
<path d="M178.356 188.489L149.995 202.666C146.238 204.534 141.823 204.534 138.066 202.666L68.1554 167.718C67.2518 167.267 66.6811 166.343 66.6811 165.333C66.6811 164.323 67.2518 163.4 68.1554 162.948L110.831 141.614C111.582 141.239 112.466 141.239 113.217 141.614L178.356 174.177C181.066 175.532 182.778 178.303 182.778 181.333C182.778 184.363 181.066 187.133 178.356 188.489V188.489ZM140.452 197.895C142.706 199.018 145.356 199.018 147.61 197.895L164.714 189.345L112.024 162.981L91.3165 173.333L140.452 197.895ZM175.97 178.948L112.024 146.981L75.3131 165.333L85.3517 170.351L110.831 157.614C111.582 157.239 112.466 157.239 113.217 157.614L170.678 186.364L175.97 183.719C176.873 183.267 177.444 182.343 177.444 181.333C177.444 180.323 176.873 179.4 175.97 178.948L175.97 178.948Z" fill="#7ACDCD"/>
<path d="M70.5413 29.0521L59.8724 34.3854C58.5553 35.0399 56.9569 34.5051 56.2991 33.1899C55.6414 31.8747 56.1725 30.2753 57.4864 29.6146L68.1553 24.2813C69.4724 23.6268 71.0708 24.1616 71.7285 25.4768C72.3863 26.792 71.8552 28.3914 70.5413 29.0521Z" fill="#7ACDCD"/>
</svg>
