<svg width="266" height="241" viewBox="0 0 266 241" fill="none" xmlns="http://www.w3.org/2000/svg">
<path d="M238.758 142.249C232.058 140.136 225.72 135.554 201.782 142.249C192.275 145.063 181.013 151.757 164.113 157.735C103.205 178.854 100.746 155.973 103.558 159.151C109.894 166.186 154.251 160.206 181.013 144.711C207.77 129.216 222.914 131.332 222.914 131.332C232.763 99.65 208.467 82.4001 208.467 82.4001C208.467 82.4001 192.274 70.0698 153.201 88.7349C113.764 107.394 104.613 91.5519 104.613 91.5519C104.613 91.5519 115.528 106.691 169.397 75.0041C184.18 66.558 197.558 75.0041 195.447 69.0172C186.997 45.0843 153.906 42.2612 149.677 27.4717C145.105 12.3354 164.467 15.1573 164.467 12.3354C164.467 2.12365 133.833 -7.02456 103.205 12.3354C72.5775 31.7027 87.3695 77.119 87.3695 77.119C57.4424 83.1071 50.0501 99.2984 47.2319 113.731C42.6553 137.667 57.4424 150.702 53.2151 150.339C30.6877 148.938 14.8407 162.669 13.4353 191.89C12.0274 221.103 37.0213 230.962 37.0213 230.962H246.497C263.749 222.156 265.857 192.948 265.857 192.948C267.614 165.128 252.83 147.174 238.758 142.249Z" fill="#7C4123"/>
<path d="M182.071 79.9261L195.097 70.7779L175.024 66.5566L182.071 79.9261Z" fill="#7C4123"/>
<path d="M209.525 139.78L222.914 130.978L206.356 125L209.525 139.78Z" fill="#7C4123"/>
<path d="M246.145 230.962L233.109 240.115L233.816 221.807L246.145 230.962Z" fill="#7C4123"/>
<path d="M151.082 21.4893L164.468 12.3338L152.848 10.5693L144.048 18.6748L151.082 21.4893Z" fill="#7C4123"/>
<path d="M225.72 151.407C219.033 149.29 212.702 144.711 188.757 151.407C179.256 154.211 167.984 160.903 151.082 166.896C90.1793 188.01 87.7189 165.128 90.5359 168.296C96.8707 175.342 141.225 169.355 167.986 153.866C194.743 138.372 209.878 140.487 209.878 140.487C219.738 108.797 195.448 91.5517 195.448 91.5517C195.448 91.5517 179.257 79.2263 140.17 97.8866C100.398 116.552 91.2392 100.349 91.2392 100.349C91.2392 100.349 102.157 115.494 156.018 83.804C170.809 75.3616 184.183 83.804 182.073 77.8159C173.624 53.8794 140.532 51.0649 136.3 36.2741C132.08 21.4919 151.085 23.9572 151.085 21.4919C151.085 11.2814 120.464 2.12461 89.8325 21.4919C59.2033 40.5063 73.9892 86.2632 73.9892 86.2632C44.0609 92.2538 36.6698 108.452 33.854 122.883C29.2763 146.822 44.0609 159.848 39.8397 159.503C17.6603 158.096 1.46531 171.464 0.0574216 200.689C-1.35169 229.912 23.6411 240.116 23.6411 240.116H233.111C250.362 231.313 252.478 202.095 252.478 202.095C254.239 174.282 239.802 155.973 225.72 151.407Z" fill="#562626"/>
</svg>
