<svg width="470" height="374" viewBox="0 0 470 374" fill="none" xmlns="http://www.w3.org/2000/svg">
<path d="M253.824 23.0006C253.824 33.7104 245.141 42.395 234.431 42.395C223.715 42.395 215.033 33.7104 215.033 23.0006C215.033 12.2854 223.715 3.60352 234.431 3.60352C245.141 3.60352 253.824 12.2854 253.824 23.0006Z" fill="white"/>
<path d="M253.824 19.3955H215.034V23.9604H253.824V19.3955Z" fill="white"/>
<path d="M253.824 19.3951C253.824 30.1076 245.141 38.7908 234.431 38.7908C223.715 38.7908 215.033 30.1076 215.033 19.3951C215.033 8.68188 223.715 0 234.431 0C245.141 0 253.824 8.68188 253.824 19.3951Z" fill="white"/>
<path d="M245.666 72.998C245.666 79.2008 240.636 84.2303 234.431 84.2303C228.223 84.2303 223.194 79.2008 223.194 72.998C223.194 66.7932 228.223 61.7617 234.431 61.7617C240.636 61.7617 245.666 66.7939 245.666 72.998Z" fill="white"/>
<path d="M245.666 70.9082H223.194V73.5534H245.666V70.9082Z" fill="white"/>
<path d="M245.666 70.9085C245.666 77.1139 240.637 82.1434 234.431 82.1434C228.224 82.1434 223.195 77.1139 223.195 70.9085C223.195 64.7037 228.224 59.6729 234.431 59.6729C240.637 59.6729 245.666 64.7037 245.666 70.9085Z" fill="white"/>
<path d="M300.465 262.992C299.89 262.754 242.733 237.879 242.733 112.459C242.733 107.955 239.066 104.293 234.562 104.293C230.056 104.293 226.389 107.955 226.389 112.459C226.389 237.657 169.231 262.754 168.655 262.992L164.753 264.607L168.824 265.715C169.3 265.847 201.001 274.302 239.668 274.301C259.167 274.301 280.441 272.15 300.364 265.697L304.107 264.484L300.465 262.992Z" fill="white"/>
<path d="M349.108 265.515C349.146 265.847 349.198 266.179 349.198 266.514C349.198 283.802 298.071 297.816 234.998 297.816C171.929 297.816 120.797 283.802 120.797 266.514C120.797 266.179 120.851 265.847 120.891 265.515C100.527 270.886 88.3047 277.726 88.3047 285.171C88.3047 302.454 153.984 316.464 234.998 316.464C316.013 316.464 381.694 302.454 381.694 285.171C381.694 277.726 369.472 270.886 349.108 265.515Z" fill="white"/>
<path d="M417.802 286.736C417.861 287.301 417.949 287.865 417.949 288.433C417.949 317.855 336.038 341.701 234.999 341.701C133.959 341.701 52.051 317.855 52.051 288.433C52.051 287.865 52.1377 287.3 52.1955 286.736C19.5706 295.881 0 307.51 0 320.185C0 349.59 105.209 373.43 234.999 373.43C364.788 373.43 470 349.591 470 320.185C470 307.51 450.43 295.881 417.802 286.736Z" fill="white"/>
</svg>
