<svg width="290" height="218" viewBox="0 0 290 218" fill="none" xmlns="http://www.w3.org/2000/svg">
<path d="M282.751 0.181013C-7.10428 83.0732 1.34984 75.8126 0.142109 83.0732C-1.06562 90.3339 4.36917 88.5187 58.1132 126.637L77.4368 213.16V213.765C77.4368 214.37 77.4368 214.37 78.0407 214.975L78.6446 215.58L79.2484 216.185L79.8523 216.79C79.8523 216.79 79.8523 216.79 80.4562 217.395H81.06H81.6639C82.2678 217.395 82.8716 218 83.4755 218C84.0794 218 84.6832 218 85.2871 217.395C85.2871 217.395 85.2871 217.395 85.891 217.395C86.4948 217.395 87.0987 216.79 87.0987 216.185L129.369 175.041C186.133 213.16 195.794 224.051 200.021 214.37C291.809 2.60124 289.997 8.65175 289.997 6.23154C289.997 -1.63414 280.939 0.181013 282.751 0.181013ZM20.6735 86.0985L232.026 26.8033L64.1518 115.746L20.6735 86.0985ZM82.8716 181.697L72.6059 136.318C73.2098 136.923 90.118 147.814 88.9103 147.209L82.8716 181.697ZM75.6253 123.612L128.765 95.1743L214.514 49.7953L96.1567 137.528C95.5528 136.923 74.4175 122.402 75.6253 123.612ZM93.1373 194.403L100.384 155.074C100.988 155.68 121.519 168.991 120.311 168.386L93.1373 194.403ZM192.775 202.874C187.34 199.243 123.331 155.68 106.422 144.789L269.466 24.3831L192.775 202.874Z" fill="#7ACDCD"/>
</svg>
